<svg xmlns="http://www.w3.org/2000/svg" id="SvgjsSvg114305" width="4096" height="1564.7836725839602" version="1.1" xmlns:xlink="http://www.w3.org/1999/xlink" xmlns:svgjs="http://svgjs.com/svgjs"><defs id="SvgjsDefs114306"></defs><g id="SvgjsG114307" transform="translate(328, 327.99999999999994) scale(34.4)" opacity="1"><defs id="SvgjsDefs30176"></defs><g id="SvgjsG30177" transform="scale(0.21645021645021645)" opacity="1"><g id="SvgjsG30178" class="5n4nu8STU" transform="translate(-7.329522829157535, -7.5405140726767375) scale(1.3714057013743315)" light-content="false" non-strokable="false" fill="#0670db"><path d="M93.905 47.232a1.5 1.5 0 0 0-2.049.549l-6.889 11.932h-6.354c-.715 0-1.375.381-1.732 1l-3.075 5.325H61.891l-7.029-12.173c.049-.06.103-.115.143-.185l9.371-16.232h11.35l4.923 8.528a1.498 1.498 0 0 0 2.049.549 1.5 1.5 0 0 0 .549-2.049l-4.923-8.527 5.711-9.891h8.092a1.5 1.5 0 1 0 0-3h-8.092l-5.999-10.39a2 2 0 0 0-1.732-1h-11.77L61.41 6.257a1.5 1.5 0 1 0-2.598 1.5l3.01 5.213-6.114 10.588a2.006 2.006 0 0 0 0 2l6.035 10.453-9.335 16.17c-.033.057-.054.116-.079.175H38.372l-5.091-8.818 4.311-7.468a2.006 2.006 0 0 0 0-2l-4.094-7.092 3.992-6.915h4.555c.715 0 1.375-.381 1.732-1l2.537-4.395a2.006 2.006 0 0 0 0-2l-2.537-4.396a2 2 0 0 0-1.732-1H36.97c-.715 0-1.375.381-1.732 1l-2.249 3.896h-6.16a1.5 1.5 0 1 0 0 3h6.16l1.932 3.346-3.888 6.735h-8.721c-.715 0-1.375.381-1.732 1l-4.227 7.322H7.127a1.5 1.5 0 1 0 0 3h9.226l4.227 7.322a2 2 0 0 0 1.732 1h8.287l5.084 8.807-7.125 12.34H20.42l-2.323-4.022a1.5 1.5 0 0 0-1.299-.75h-4.686L8.21 54.505a1.5 1.5 0 1 0-2.598 1.5L9.536 62.8l-2.302 3.987a1.495 1.495 0 0 0 0 1.5l2.405 4.166-4.093 7.089a1.5 1.5 0 0 0 2.598 1.501l4.175-7.232h4.48a1.5 1.5 0 0 0 1.299-.75l2.323-4.023h8.139l7.323 12.683a2 2 0 0 0 1.732 1h14.717l6.365 11.025a1.498 1.498 0 0 0 2.049.548 1.5 1.5 0 0 0 .549-2.049l-6.401-11.087 6.998-12.12h11.915l3.075 5.325a2 2 0 0 0 1.732 1h5.785l5.108 8.848a1.498 1.498 0 0 0 2.049.548 1.5 1.5 0 0 0 .549-2.049l-4.927-8.532 3.257-5.64a2.006 2.006 0 0 0 0-2l-2.972-5.147 6.991-12.109a1.5 1.5 0 0 0-.549-2.05zM64.882 15.667h10.267l5.133 8.89-5.133 8.891H64.882l-5.133-8.891 5.133-8.89zm-26.757-4.396h2.766l1.383 2.396-1.382 2.395h-2.767l-1.383-2.395 1.383-2.396zM20.106 35.069l3.36-5.822h6.724l3.36 5.822-3.36 5.822h-6.724l-3.36-5.822zM15.933 70.81h-3.778l-1.89-3.273 1.756-3.041c.061-.025.124-.042.183-.076.079-.046.15-.099.217-.156h3.512l1.865 3.229c0 .015-.004.028-.004.043s.004.029.004.043l-1.865 3.231zm35.749 7.91H38.769l-6.456-11.183 6.456-11.183h12.913l6.456 11.183-6.456 11.183zM77.56 67.537l2.208-3.825h4.417l2.208 3.825-2.208 3.825h-4.417l-2.208-3.825zM45.226 59.66c-4.344 0-7.878 3.534-7.878 7.877s3.534 7.878 7.878 7.878 7.877-3.534 7.877-7.878-3.534-7.877-7.877-7.877zm0 13.755a5.885 5.885 0 0 1-5.878-5.878 5.884 5.884 0 0 1 5.878-5.877 5.884 5.884 0 0 1 5.877 5.877 5.885 5.885 0 0 1-5.877 5.878zm24.789-42.728c3.381 0 6.131-2.75 6.131-6.13s-2.75-6.13-6.131-6.13c-3.38 0-6.13 2.75-6.13 6.13s2.75 6.13 6.13 6.13zm0-10.261c2.277 0 4.131 1.853 4.131 4.13s-1.854 4.13-4.131 4.13-4.13-1.853-4.13-4.13 1.852-4.13 4.13-4.13zM26.829 31.731c-1.841 0-3.338 1.497-3.338 3.337s1.497 3.337 3.338 3.337c1.84 0 3.337-1.497 3.337-3.337s-1.497-3.337-3.337-3.337zm0 5.675c-1.289 0-2.338-1.048-2.338-2.337s1.049-2.337 2.338-2.337 2.337 1.048 2.337 2.337-1.048 2.337-2.337 2.337z"></path></g><g id="SvgjsG30179" class="text" transform="translate(309.63816104229807, 57.42232156981069) scale(1)" light-content="false" fill="#0f0f0f"><path d="M-116.59 -28.87C-116.59 -30.79 -117.26 -32.43 -118.62 -33.77C-119.98 -35.11 -121.6 -35.78 -123.49 -35.78L-145.46 -35.78C-147.38 -35.78 -149.01 -35.11 -150.35 -33.77C-151.7 -32.43 -152.37 -30.79 -152.37 -28.87L-152.37 -21.52C-152.37 -19.6 -151.7 -17.96 -150.35 -16.62C-149.01 -15.28 -147.38 -14.61 -145.46 -14.61L-123.49 -14.61C-123.29 -14.61 -123.19 -14.49 -123.19 -14.26L-123.19 -6.91C-123.19 -6.68 -123.29 -6.56 -123.49 -6.56L-145.46 -6.56C-145.69 -6.56 -145.81 -6.68 -145.81 -6.91L-145.81 -9.64L-152.37 -9.64L-152.37 -6.91C-152.37 -4.99 -151.7 -3.35 -150.35 -2.01C-149.01 -0.67 -147.38 0 -145.46 0L-123.49 0C-121.6 0 -119.98 -0.67 -118.62 -2.01C-117.26 -3.35 -116.59 -4.99 -116.59 -6.91L-116.59 -14.26C-116.59 -16.18 -117.26 -17.82 -118.62 -19.16C-119.98 -20.5 -121.6 -21.17 -123.49 -21.17L-145.46 -21.17C-145.69 -21.17 -145.81 -21.29 -145.81 -21.52L-145.81 -28.87C-145.81 -29.1 -145.69 -29.22 -145.46 -29.22L-123.49 -29.22C-123.29 -29.22 -123.19 -29.1 -123.19 -28.87L-123.19 -26.14L-116.59 -26.14Z M-73.3 -35.78L-106.2 -35.78L-106.2 0L-73.3 0L-73.3 -6.56L-99.59 -6.56L-99.59 -14.61L-78.42 -14.61L-78.42 -21.17L-99.59 -21.17L-99.59 -29.22L-73.3 -29.22Z M-34.09 -9.54L-56.11 -35.78L-63.26 -35.78L-63.26 0L-56.7 0L-56.7 -26.24L-34.64 0L-27.48 0L-27.48 -35.78L-34.09 -35.78Z M-18.74 -35.78L-18.74 -29.22L-4.12 -29.22L-4.12 0L2.48 0L2.48 -29.22L17.05 -29.22L17.05 -35.78Z M32.75 -35.78C30.83 -35.78 29.2 -35.11 27.85 -33.77C26.51 -32.43 25.84 -30.79 25.84 -28.87L25.84 0L32.4 0L32.4 -12.03L55.01 -12.03L55.01 0L61.62 0L61.62 -28.87C61.62 -30.79 60.94 -32.43 59.58 -33.77C58.23 -35.11 56.59 -35.78 54.66 -35.78ZM32.4 -18.59L32.4 -28.87C32.4 -29.1 32.52 -29.22 32.75 -29.22L54.66 -29.22C54.9 -29.22 55.01 -29.1 55.01 -28.87L55.01 -18.59Z M99.59 -35.78L87.36 -21.17L78.92 -21.17L78.92 -35.78L72.31 -35.78L72.31 0L78.92 0L78.92 -14.61L87.36 -14.61L99.59 0L106.8 0L106.8 -1.74L93.28 -17.89L106.8 -34.04L106.8 -35.78Z M152.37 -28.87C152.37 -30.79 151.69 -32.43 150.33 -33.77C148.97 -35.11 147.35 -35.78 145.46 -35.78L123.49 -35.78C121.57 -35.78 119.94 -35.11 118.6 -33.77C117.26 -32.43 116.59 -30.79 116.59 -28.87L116.59 -21.52C116.59 -19.6 117.26 -17.96 118.6 -16.62C119.94 -15.28 121.57 -14.61 123.49 -14.61L145.46 -14.61C145.66 -14.61 145.76 -14.49 145.76 -14.26L145.76 -6.91C145.76 -6.68 145.66 -6.56 145.46 -6.56L123.49 -6.56C123.26 -6.56 123.15 -6.68 123.15 -6.91L123.15 -9.64L116.59 -9.64L116.59 -6.91C116.59 -4.99 117.26 -3.35 118.6 -2.01C119.94 -0.67 121.57 0 123.49 0L145.46 0C147.35 0 148.97 -0.67 150.33 -2.01C151.69 -3.35 152.37 -4.99 152.37 -6.91L152.37 -14.26C152.37 -16.18 151.69 -17.82 150.33 -19.16C148.97 -20.5 147.35 -21.17 145.46 -21.17L123.49 -21.17C123.26 -21.17 123.15 -21.29 123.15 -21.52L123.15 -28.87C123.15 -29.1 123.26 -29.22 123.49 -29.22L145.46 -29.22C145.66 -29.22 145.76 -29.1 145.76 -28.87L145.76 -26.14L152.37 -26.14Z"></path></g><g id="SvgjsG30180" class="text" transform="translate(310.3381610422981, 95.11284923615081) scale(1)" light-content="false" fill="#0670db"><path d="M-147.35 -3.29L-150.62 -13.13L-153.07 -13.13L-148.39 -0.15L-148.89 1.19C-149.16 2.01 -149.51 2.57 -149.94 2.88C-150.36 3.18 -150.95 3.34 -151.71 3.34L-152.32 3.29L-152.32 5.11L-151.48 5.27L-151.06 5.3C-149.28 5.3 -147.98 4.21 -147.16 2.03L-141.89 -13.13L-144.29 -13.13Z M-130.22 0L-127.87 0L-127.87 -0.19C-128.18 -0.91 -128.33 -1.86 -128.33 -3.07L-128.33 -9.11C-128.36 -10.44 -128.81 -11.48 -129.66 -12.24C-130.52 -12.99 -131.71 -13.37 -133.22 -13.37C-134.17 -13.37 -135.05 -13.19 -135.85 -12.84C-136.64 -12.48 -137.27 -12 -137.74 -11.39C-138.2 -10.78 -138.44 -10.14 -138.44 -9.49L-136.18 -9.49C-136.18 -10.06 -135.91 -10.55 -135.37 -10.96C-134.83 -11.36 -134.15 -11.56 -133.35 -11.56C-132.44 -11.56 -131.75 -11.33 -131.28 -10.86C-130.81 -10.4 -130.57 -9.77 -130.57 -8.99L-130.57 -7.96L-132.76 -7.96C-134.64 -7.96 -136.11 -7.58 -137.14 -6.82C-138.18 -6.07 -138.7 -5.01 -138.7 -3.64C-138.7 -2.52 -138.29 -1.59 -137.46 -0.86C-136.63 -0.12 -135.57 0.24 -134.28 0.24C-132.83 0.24 -131.58 -0.3 -130.54 -1.38C-130.46 -0.72 -130.35 -0.26 -130.22 0ZM-133.95 -1.71C-134.68 -1.71 -135.29 -1.91 -135.76 -2.31C-136.22 -2.7 -136.46 -3.25 -136.46 -3.96C-136.46 -5.56 -135.08 -6.37 -132.33 -6.37L-130.57 -6.37L-130.57 -3.68C-130.86 -3.09 -131.32 -2.62 -131.95 -2.26C-132.58 -1.89 -133.24 -1.71 -133.95 -1.71Z M-120.96 -1.83L-113.65 -11.54L-113.65 -13.13L-123.59 -13.13L-123.59 -11.27L-116.46 -11.27L-123.7 -1.65L-123.7 0L-113.28 0L-113.28 -1.83Z M-106.58 0L-106.58 -13.13L-108.84 -13.13L-108.84 0Z M-98.7 0L-98.7 -18.64L-100.94 -18.64L-100.94 0Z M-90.93 0L-90.93 -13.13L-93.19 -13.13L-93.19 0Z M-83.38 -13.13L-85.5 -13.13L-85.5 0L-83.26 0L-83.26 -9.58C-82.72 -10.84 -81.71 -11.47 -80.24 -11.47C-78.37 -11.47 -77.43 -10.51 -77.43 -8.6L-77.43 0L-75.18 0L-75.18 -8.71C-75.09 -9.55 -74.77 -10.22 -74.22 -10.72C-73.67 -11.22 -72.98 -11.47 -72.14 -11.47C-71.13 -11.47 -70.41 -11.23 -69.99 -10.77C-69.56 -10.3 -69.34 -9.6 -69.34 -8.66L-69.34 0L-67.1 0L-67.1 -8.8C-67.15 -11.85 -68.61 -13.37 -71.49 -13.37C-72.44 -13.37 -73.27 -13.18 -73.97 -12.79C-74.67 -12.4 -75.24 -11.89 -75.68 -11.26C-76.34 -12.67 -77.59 -13.37 -79.42 -13.37C-81.06 -13.37 -82.36 -12.8 -83.32 -11.67Z M-49.41 -6.59L-49.41 -8.42L-55.33 -8.42L-55.33 -6.59Z M-33.3 -3.29L-36.58 -13.13L-39.03 -13.13L-34.34 -0.15L-34.84 1.19C-35.12 2.01 -35.47 2.57 -35.89 2.88C-36.32 3.18 -36.91 3.34 -37.67 3.34L-38.28 3.29L-38.28 5.11L-37.44 5.27L-37.01 5.3C-35.23 5.3 -33.94 4.21 -33.12 2.03L-27.84 -13.13L-30.24 -13.13Z M-16.18 0L-13.82 0L-13.82 -0.19C-14.13 -0.91 -14.28 -1.86 -14.28 -3.07L-14.28 -9.11C-14.32 -10.44 -14.76 -11.48 -15.62 -12.24C-16.48 -12.99 -17.66 -13.37 -19.17 -13.37C-20.13 -13.37 -21 -13.19 -21.8 -12.84C-22.6 -12.48 -23.23 -12 -23.69 -11.39C-24.16 -10.78 -24.39 -10.14 -24.39 -9.49L-22.13 -9.49C-22.13 -10.06 -21.86 -10.55 -21.32 -10.96C-20.78 -11.36 -20.11 -11.56 -19.31 -11.56C-18.39 -11.56 -17.7 -11.33 -17.23 -10.86C-16.76 -10.4 -16.53 -9.77 -16.53 -8.99L-16.53 -7.96L-18.71 -7.96C-20.6 -7.96 -22.06 -7.58 -23.1 -6.82C-24.14 -6.07 -24.66 -5.01 -24.66 -3.64C-24.66 -2.52 -24.24 -1.59 -23.41 -0.86C-22.59 -0.12 -21.52 0.24 -20.23 0.24C-18.78 0.24 -17.54 -0.3 -16.49 -1.38C-16.41 -0.72 -16.31 -0.26 -16.18 0ZM-19.9 -1.71C-20.64 -1.71 -21.24 -1.91 -21.71 -2.31C-22.18 -2.7 -22.41 -3.25 -22.41 -3.96C-22.41 -5.56 -21.04 -6.37 -18.29 -6.37L-16.53 -6.37L-16.53 -3.68C-16.81 -3.09 -17.27 -2.62 -17.9 -2.26C-18.53 -1.89 -19.2 -1.71 -19.9 -1.71Z M2.06 -6.42L2.06 -6.62C2.06 -8.74 1.6 -10.4 0.69 -11.59C-0.23 -12.78 -1.48 -13.37 -3.06 -13.37C-4.68 -13.37 -5.95 -12.8 -6.87 -11.67L-6.98 -13.13L-9.03 -13.13L-9.03 5.05L-6.78 5.05L-6.78 -1.27C-5.87 -0.26 -4.61 0.24 -3.02 0.24C-1.46 0.24 -0.22 -0.37 0.69 -1.59C1.61 -2.81 2.06 -4.42 2.06 -6.42ZM-0.18 -6.67C-0.18 -4.99 -0.5 -3.72 -1.13 -2.87C-1.77 -2.02 -2.62 -1.59 -3.7 -1.59C-5.08 -1.59 -6.11 -2.19 -6.78 -3.39L-6.78 -9.66C-6.1 -10.86 -5.08 -11.47 -3.72 -11.47C-2.62 -11.47 -1.76 -11.04 -1.13 -10.18C-0.5 -9.32 -0.18 -8.15 -0.18 -6.67Z M14.76 0L17.11 0L17.11 -0.19C16.8 -0.91 16.65 -1.86 16.65 -3.07L16.65 -9.11C16.62 -10.44 16.17 -11.48 15.32 -12.24C14.46 -12.99 13.27 -13.37 11.76 -13.37C10.81 -13.37 9.93 -13.19 9.13 -12.84C8.34 -12.48 7.71 -12 7.24 -11.39C6.78 -10.78 6.54 -10.14 6.54 -9.49L8.8 -9.49C8.8 -10.06 9.07 -10.55 9.61 -10.96C10.16 -11.36 10.83 -11.56 11.63 -11.56C12.54 -11.56 13.23 -11.33 13.7 -10.86C14.17 -10.4 14.41 -9.77 14.41 -8.99L14.41 -7.96L12.22 -7.96C10.34 -7.96 8.88 -7.58 7.84 -6.82C6.8 -6.07 6.28 -5.01 6.28 -3.64C6.28 -2.52 6.69 -1.59 7.52 -0.86C8.35 -0.12 9.41 0.24 10.71 0.24C12.15 0.24 13.4 -0.3 14.44 -1.38C14.52 -0.72 14.63 -0.26 14.76 0ZM11.03 -1.71C10.3 -1.71 9.69 -1.91 9.23 -2.31C8.76 -2.7 8.52 -3.25 8.52 -3.96C8.52 -5.56 9.9 -6.37 12.65 -6.37L14.41 -6.37L14.41 -3.68C14.12 -3.09 13.67 -2.62 13.04 -2.26C12.4 -1.89 11.74 -1.71 11.03 -1.71Z M26.02 -3.29L22.75 -13.13L20.3 -13.13L24.98 -0.15L24.48 1.19C24.21 2.01 23.86 2.57 23.43 2.88C23.01 3.18 22.41 3.34 21.65 3.34L21.05 3.29L21.05 5.11L21.88 5.27L22.31 5.3C24.09 5.3 25.39 4.21 26.2 2.03L31.48 -13.13L29.08 -13.13Z M45.23 -1.83L52.54 -11.54L52.54 -13.13L42.59 -13.13L42.59 -11.27L49.73 -11.27L42.48 -1.65L42.48 0L52.91 0L52.91 -1.83Z M62.42 0.24C64.62 0.24 66.27 -0.6 67.37 -2.29L66 -3.36C65.59 -2.83 65.11 -2.4 64.56 -2.07C64.01 -1.75 63.34 -1.59 62.54 -1.59C61.43 -1.59 60.51 -1.99 59.78 -2.78C59.06 -3.58 58.68 -4.63 58.65 -5.92L67.54 -5.92L67.54 -6.85C67.54 -8.95 67.07 -10.56 66.12 -11.68C65.18 -12.81 63.85 -13.37 62.14 -13.37C61.1 -13.37 60.13 -13.08 59.24 -12.5C58.34 -11.92 57.65 -11.12 57.15 -10.1C56.65 -9.08 56.4 -7.91 56.4 -6.61L56.4 -6.2C56.4 -4.24 56.96 -2.68 58.08 -1.51C59.19 -0.34 60.64 0.24 62.42 0.24ZM62.14 -11.53C63.08 -11.53 63.83 -11.21 64.38 -10.59C64.93 -9.96 65.23 -9.08 65.3 -7.93L65.3 -7.76L58.72 -7.76C58.87 -8.95 59.25 -9.88 59.86 -10.54C60.48 -11.2 61.24 -11.53 62.14 -11.53Z M75.54 -6.08L80.12 0L82.75 0L77.05 -7.64L82.15 -13.13L79.42 -13.13L75.34 -8.81L74.13 -7.36L74.13 -18.64L71.89 -18.64L71.89 0L74.13 0L74.13 -4.61Z M94.32 0L96.67 0L96.67 -0.19C96.36 -0.91 96.21 -1.86 96.21 -3.07L96.21 -9.11C96.18 -10.44 95.73 -11.48 94.87 -12.24C94.02 -12.99 92.83 -13.37 91.32 -13.37C90.36 -13.37 89.49 -13.19 88.69 -12.84C87.9 -12.48 87.26 -12 86.8 -11.39C86.33 -10.78 86.1 -10.14 86.1 -9.49L88.36 -9.49C88.36 -10.06 88.63 -10.55 89.17 -10.96C89.71 -11.36 90.38 -11.56 91.19 -11.56C92.1 -11.56 92.79 -11.33 93.26 -10.86C93.73 -10.4 93.96 -9.77 93.96 -8.99L93.96 -7.96L91.78 -7.96C89.9 -7.96 88.43 -7.58 87.39 -6.82C86.35 -6.07 85.84 -5.01 85.84 -3.64C85.84 -2.52 86.25 -1.59 87.08 -0.86C87.91 -0.12 88.97 0.24 90.26 0.24C91.71 0.24 92.96 -0.3 94 -1.38C94.08 -0.72 94.19 -0.26 94.32 0ZM90.59 -1.71C89.86 -1.71 89.25 -1.91 88.78 -2.31C88.31 -2.7 88.08 -3.25 88.08 -3.96C88.08 -5.56 89.45 -6.37 92.2 -6.37L93.96 -6.37L93.96 -3.68C93.68 -3.09 93.22 -2.62 92.59 -2.26C91.96 -1.89 91.29 -1.71 90.59 -1.71Z M114.03 -6.59L114.03 -8.42L108.11 -8.42L108.11 -6.59Z M133.95 0L136.3 0L136.3 -0.19C135.99 -0.91 135.84 -1.86 135.84 -3.07L135.84 -9.11C135.81 -10.44 135.36 -11.48 134.51 -12.24C133.65 -12.99 132.46 -13.37 130.95 -13.37C130 -13.37 129.12 -13.19 128.32 -12.84C127.53 -12.48 126.9 -12 126.43 -11.39C125.97 -10.78 125.73 -10.14 125.73 -9.49L127.99 -9.49C127.99 -10.06 128.26 -10.55 128.8 -10.96C129.35 -11.36 130.02 -11.56 130.82 -11.56C131.73 -11.56 132.42 -11.33 132.89 -10.86C133.36 -10.4 133.6 -9.77 133.6 -8.99L133.6 -7.96L131.41 -7.96C129.53 -7.96 128.07 -7.58 127.03 -6.82C125.99 -6.07 125.47 -5.01 125.47 -3.64C125.47 -2.52 125.88 -1.59 126.71 -0.86C127.54 -0.12 128.6 0.24 129.9 0.24C131.34 0.24 132.59 -0.3 133.63 -1.38C133.71 -0.72 133.82 -0.26 133.95 0ZM130.22 -1.71C129.49 -1.71 128.88 -1.91 128.42 -2.31C127.95 -2.7 127.71 -3.25 127.71 -3.96C127.71 -5.56 129.09 -6.37 131.84 -6.37L133.6 -6.37L133.6 -3.68C133.31 -3.09 132.86 -2.62 132.22 -2.26C131.59 -1.89 130.93 -1.71 130.22 -1.71Z M140.56 -6.67C140.56 -4.54 141.04 -2.85 141.99 -1.61C142.94 -0.38 144.18 0.24 145.72 0.24C147.27 0.24 148.5 -0.28 149.4 -1.31L149.4 -0.18C149.4 0.93 149.09 1.8 148.48 2.41C147.87 3.03 147.02 3.34 145.93 3.34C144.54 3.34 143.36 2.74 142.4 1.55L141.23 2.9C141.71 3.6 142.4 4.16 143.31 4.56C144.21 4.97 145.14 5.17 146.09 5.17C147.78 5.17 149.14 4.68 150.14 3.7C151.15 2.72 151.65 1.38 151.65 -0.32L151.65 -13.13L149.6 -13.13L149.49 -11.67C148.6 -12.8 147.35 -13.37 145.75 -13.37C144.18 -13.37 142.93 -12.77 141.98 -11.56C141.04 -10.35 140.56 -8.72 140.56 -6.67ZM142.82 -6.42C142.82 -8.08 143.13 -9.34 143.74 -10.19C144.36 -11.04 145.21 -11.47 146.3 -11.47C147.68 -11.47 148.71 -10.84 149.4 -9.58L149.4 -3.59C148.73 -2.31 147.69 -1.66 146.28 -1.66C145.19 -1.66 144.34 -2.08 143.73 -2.93C143.12 -3.78 142.82 -4.94 142.82 -6.42ZM149.79 -18.15L147.97 -18.15C147.97 -17.58 147.81 -17.13 147.49 -16.82C147.17 -16.5 146.72 -16.34 146.16 -16.34C145.57 -16.34 145.12 -16.5 144.81 -16.82C144.5 -17.14 144.35 -17.58 144.35 -18.15L142.52 -18.15C142.52 -17.18 142.85 -16.4 143.53 -15.8C144.2 -15.2 145.07 -14.9 146.16 -14.9C147.24 -14.9 148.12 -15.2 148.78 -15.79C149.45 -16.39 149.79 -17.17 149.79 -18.15Z"></path></g></g></g></svg>