<?xml version="1.0" standalone="no"?>
<!DOCTYPE svg PUBLIC "-//W3C//DTD SVG 20010904//EN"
 "http://www.w3.org/TR/2001/REC-SVG-20010904/DTD/svg10.dtd">
<svg version="1.0" xmlns="http://www.w3.org/2000/svg"
 width="1080.000000pt" height="287.000000pt" viewBox="0 0 1080.000000 287.000000"
 preserveAspectRatio="xMidYMid meet">
<metadata>
Created by potrace 1.15, written by Peter Selinger 2001-2017
</metadata>
<g transform="translate(0.000000,287.000000) scale(0.100000,-0.100000)"
fill="#000000" stroke="none">
<path d="M1726 2845 c-25 -25 -20 -50 31 -137 25 -44 46 -86 46 -92 0 -6 -43
-86 -96 -178 -53 -92 -97 -177 -97 -190 0 -13 44 -100 98 -195 l99 -171 -150
-261 -150 -261 -216 0 -216 0 -77 135 c-43 74 -78 140 -78 145 0 6 32 65 70
133 39 67 70 129 70 138 0 8 -31 70 -69 137 l-70 123 62 107 62 107 92 5 c50
3 94 7 96 10 23 23 100 171 100 191 0 26 -72 166 -99 194 -12 12 -41 15 -129
15 -130 0 -126 2 -177 -90 l-33 -60 -103 0 c-122 0 -142 -8 -142 -55 0 -47 20
-55 142 -55 l103 0 28 -50 29 -51 -60 -102 -59 -102 -156 -5 c-86 -3 -161 -9
-166 -15 -5 -5 -41 -64 -79 -130 l-70 -120 -158 -3 c-95 -1 -163 -7 -171 -13
-17 -15 -17 -63 0 -78 8 -6 76 -12 172 -13 l159 -3 70 -122 c44 -77 78 -125
93 -132 13 -6 82 -11 157 -11 l134 0 76 -132 c42 -72 76 -135 76 -141 0 -5
-48 -94 -107 -198 l-108 -188 -127 -1 -127 0 -43 73 -44 72 -90 3 -89 3 -55
96 c-70 123 -86 143 -114 143 -25 0 -56 -28 -56 -51 0 -8 29 -65 65 -128 l65
-113 -42 -78 -42 -77 42 -73 c23 -40 42 -77 42 -82 0 -5 -29 -59 -65 -121 -36
-62 -65 -122 -65 -133 0 -29 19 -44 56 -44 31 0 36 6 104 125 l71 125 77 0
c42 0 83 4 91 9 7 5 30 37 50 72 l37 64 130 2 129 3 115 -202 c63 -110 121
-207 128 -215 11 -10 67 -13 261 -13 l248 0 108 -186 c59 -102 114 -188 122
-191 9 -3 27 -2 42 3 50 18 41 50 -68 239 -56 96 -101 180 -101 186 0 6 48 94
106 195 l107 184 188 0 188 0 42 -78 c67 -121 69 -122 191 -122 l103 0 80
-141 c87 -154 107 -175 149 -160 46 18 35 59 -53 210 l-78 134 53 91 c33 56
54 103 54 121 0 18 -21 65 -49 113 l-48 84 113 196 c63 108 114 206 114 218 0
30 -23 46 -60 42 -29 -3 -38 -16 -143 -198 l-113 -195 -114 -5 c-63 -3 -121
-9 -127 -13 -7 -4 -36 -48 -65 -98 l-52 -89 -187 0 -187 0 -106 185 c-58 101
-106 189 -106 196 0 6 66 125 146 265 l147 254 177 0 178 0 77 -136 c43 -74
89 -142 101 -151 22 -14 26 -14 49 1 15 10 25 26 25 40 0 14 -36 86 -79 162
l-80 137 24 41 c13 23 52 91 87 151 l64 110 143 5 c126 4 144 7 157 24 18 26
18 39 -3 65 -17 19 -30 21 -157 23 l-138 3 -98 169 c-54 92 -104 172 -111 177
-8 5 -102 9 -211 9 l-196 0 -59 98 c-47 79 -63 98 -84 100 -15 2 -34 -4 -43
-13z m-561 -213 l20 -37 -20 -37 c-18 -34 -24 -38 -60 -38 -36 0 -42 4 -61 38
l-20 38 23 37 c20 32 28 37 61 37 33 0 39 -5 57 -38z m1130 -204 c32 -57 69
-121 81 -143 l22 -40 -78 -135 -78 -135 -163 0 -163 0 -79 136 -78 137 81 141
82 141 157 0 157 0 59 -102z m-1439 -427 l52 -89 -52 -91 -51 -91 -105 2 -104
3 -48 80 c-26 44 -47 86 -48 94 0 7 21 51 48 97 l47 84 105 0 105 0 51 -89z
m734 -948 c75 -131 100 -181 93 -193 -5 -8 -51 -88 -102 -178 l-94 -162 -201
2 -201 3 -101 175 -101 175 29 50 c16 28 61 107 101 177 l72 127 202 1 201 0
102 -177z m971 -119 l32 -57 -31 -56 -31 -56 -71 0 -71 0 -31 55 -30 56 32 57
32 57 68 0 69 0 32 -56z m-2185 -7 l30 -52 -26 -45 c-26 -45 -27 -45 -86 -48
l-60 -3 -27 48 -26 49 25 44 c32 56 38 60 94 60 45 0 46 -1 76 -53z"/>
<path d="M2020 2439 c-92 -28 -145 -109 -138 -209 5 -67 32 -113 86 -151 30
-20 48 -24 113 -24 71 0 80 2 116 31 91 72 108 193 40 285 -42 58 -144 90
-217 68z m120 -84 c62 -32 80 -129 35 -183 -52 -61 -129 -66 -184 -11 -101
100 22 260 149 194z"/>
<path d="M624 1986 c-46 -46 -48 -101 -5 -148 26 -29 35 -33 81 -33 46 0 55 4
81 33 47 52 35 138 -22 168 -50 25 -97 18 -135 -20z"/>
<path d="M1208 1120 c-111 -33 -190 -159 -174 -277 8 -59 50 -136 92 -168 77
-59 184 -71 270 -31 194 90 194 372 0 462 -53 25 -133 31 -188 14z m140 -75
c49 -21 81 -52 103 -100 23 -51 23 -89 0 -140 -37 -82 -128 -128 -206 -105
-56 17 -92 45 -115 90 -75 147 70 316 218 255z"/>
<path d="M3791 2350 c-45 -11 -80 -38 -102 -80 -16 -29 -19 -57 -19 -163 0
-148 14 -189 77 -228 37 -24 44 -24 321 -27 l282 -3 0 -85 0 -84 -260 0 -260
0 0 35 0 35 -80 0 -80 0 0 -55 c0 -71 27 -125 77 -156 38 -24 40 -24 344 -24
l305 0 41 27 c65 43 75 76 71 236 -3 125 -5 140 -26 170 -47 65 -57 67 -369
70 l-283 3 0 85 0 84 260 0 260 0 0 -35 0 -35 81 0 81 0 -4 68 c-4 76 -28 120
-81 150 -28 15 -68 17 -317 19 -157 1 -300 -2 -319 -7z"/>
<path d="M4740 1935 l0 -425 390 0 390 0 0 85 0 85 -305 0 -305 0 0 85 0 85
245 0 245 0 0 85 0 85 -245 0 -245 0 0 85 0 85 305 0 305 0 0 85 0 85 -390 0
-390 0 0 -425z"/>
<path d="M5740 1935 l0 -425 85 0 85 0 2 296 3 296 249 -296 248 -296 89 0 89
0 0 425 0 425 -85 0 -85 0 0 -301 0 -300 -252 300 -252 301 -88 0 -88 0 0
-425z"/>
<path d="M6780 2275 l0 -85 170 0 170 0 0 -340 0 -340 80 0 80 0 0 340 0 340
170 0 170 0 0 85 0 85 -420 0 -420 0 0 -85z"/>
<path d="M7927 2346 c-21 -8 -47 -22 -59 -33 -47 -42 -48 -50 -48 -438 l0
-365 80 0 80 0 0 140 0 140 255 0 255 0 0 -140 0 -140 85 0 85 0 0 355 c0 388
-1 395 -58 448 -16 16 -47 33 -68 38 -65 15 -562 10 -607 -5z m563 -271 l0
-115 -255 0 -255 0 0 115 0 115 255 0 255 0 0 -115z"/>
<path d="M8900 1935 l0 -425 80 0 80 0 0 170 0 170 98 -1 97 0 140 -170 140
-169 87 0 88 0 0 28 c0 20 -38 72 -155 211 l-154 184 19 26 c10 14 80 98 154
186 101 120 136 167 136 188 l0 27 -88 0 -87 0 -140 -169 -140 -170 -97 0 -98
-1 0 170 0 170 -80 0 -80 0 0 -425z"/>
<path d="M10051 2350 c-46 -11 -82 -40 -104 -81 -15 -29 -17 -55 -15 -176 3
-158 11 -178 79 -218 31 -19 55 -20 317 -23 l282 -3 0 -85 0 -84 -260 0 -260
0 0 35 0 35 -81 0 -81 0 4 -70 c4 -78 23 -112 79 -145 32 -19 52 -20 339 -20
297 0 306 1 340 22 20 12 46 40 58 61 19 35 22 54 22 166 0 147 -14 188 -77
227 -37 23 -44 24 -320 27 l-283 3 0 85 0 84 260 0 260 0 0 -35 0 -35 80 0 80
0 0 55 c0 71 -27 125 -77 156 -37 24 -43 24 -323 26 -157 1 -300 -2 -319 -7z"/>
<path d="M4880 860 l0 -220 30 0 30 0 0 220 0 220 -30 0 -30 0 0 -220z"/>
<path d="M8900 860 l0 -220 35 0 35 0 0 54 c0 85 18 88 74 11 45 -61 50 -65
87 -65 l40 0 -67 91 -67 91 57 57 c31 31 56 60 56 64 0 4 -17 7 -37 7 -34 0
-44 -7 -90 -57 l-52 -58 -1 123 0 122 -35 0 -35 0 0 -220z"/>
<path d="M4074 946 c-32 -14 -64 -51 -64 -73 0 -17 57 -17 67 1 28 47 105 36
111 -17 3 -26 2 -27 -51 -27 -65 0 -117 -30 -128 -75 -23 -86 64 -149 154
-111 20 8 37 11 37 5 0 -5 15 -9 33 -9 l32 0 -6 123 c-3 67 -11 133 -18 145
-24 46 -106 64 -167 38z"/>
<path d="M5333 946 c-18 -8 -33 -11 -33 -6 0 6 -13 10 -30 10 l-30 0 0 -155 0
-155 30 0 30 0 0 108 c0 127 11 152 65 152 58 0 65 -17 65 -146 l0 -114 30 0
30 0 0 110 c0 123 12 150 69 150 50 0 61 -29 61 -152 l0 -108 30 0 30 0 0 120
c0 138 -11 171 -61 189 -45 16 -69 14 -110 -8 -32 -17 -38 -18 -51 -4 -22 21
-87 26 -125 9z"/>
<path d="M6750 954 c-42 -15 -63 -31 -76 -56 -19 -37 -18 -38 17 -38 18 0 38
8 47 19 29 33 59 35 87 7 40 -40 33 -56 -25 -56 -60 0 -114 -20 -129 -48 -18
-35 -13 -89 12 -117 29 -34 91 -44 135 -21 18 9 32 12 32 6 0 -5 15 -10 33
-10 l32 0 -3 102 c-3 136 -8 161 -35 186 -23 22 -97 37 -127 26z"/>
<path d="M7108 944 c-16 -8 -28 -10 -28 -4 0 5 -13 10 -30 10 l-30 0 0 -215 0
-215 30 0 30 0 0 69 0 70 28 -15 c98 -51 193 38 179 170 -3 30 -13 68 -21 85
-29 55 -101 76 -158 45z m91 -65 c44 -48 33 -157 -19 -184 -30 -16 -53 -12
-82 13 -27 23 -25 145 2 172 26 26 74 26 99 -1z"/>
<path d="M7470 954 c-42 -15 -63 -31 -76 -56 -19 -37 -18 -38 17 -38 18 0 38
8 47 19 29 33 59 35 87 7 40 -40 33 -56 -25 -56 -60 0 -114 -20 -129 -48 -18
-35 -13 -89 12 -117 29 -34 91 -44 135 -21 18 9 32 12 32 6 0 -5 15 -10 33
-10 l32 0 -3 102 c-3 136 -8 161 -35 186 -23 22 -97 37 -127 26z"/>
<path d="M8623 944 c-88 -44 -107 -201 -34 -275 50 -49 145 -51 196 -3 25 23
26 27 12 41 -14 14 -20 14 -60 -6 -51 -25 -84 -18 -111 21 -31 44 -23 48 84
48 l100 0 0 49 c0 108 -94 171 -187 125z"/>
<path d="M9315 953 c-35 -10 -63 -34 -74 -64 -10 -28 -9 -29 23 -29 21 0 36 6
40 15 9 24 53 37 79 24 27 -14 37 -28 37 -51 0 -15 -9 -18 -49 -18 -92 0 -141
-34 -141 -100 0 -42 15 -67 50 -85 36 -19 77 -19 113 -1 15 8 27 11 27 5 0 -5
16 -9 36 -9 33 0 36 2 30 23 -3 12 -6 68 -6 124 0 98 -1 104 -27 133 -21 23
-39 31 -73 34 -25 3 -54 2 -65 -1z"/>
<path d="M10230 949 c-35 -14 -70 -49 -70 -71 0 -26 47 -24 69 4 35 42 111 20
111 -33 0 -14 -12 -17 -66 -21 -60 -4 -70 -7 -95 -36 -79 -88 26 -204 133
-148 16 9 30 11 33 5 4 -5 19 -9 34 -9 l27 0 -4 118 c-2 64 -8 130 -14 146
-19 47 -97 69 -158 45z"/>
<path d="M10573 945 c-46 -20 -67 -66 -68 -150 0 -55 5 -78 22 -106 36 -57 98
-75 157 -44 28 15 28 15 22 -13 -14 -59 -80 -80 -130 -41 -21 17 -29 19 -41 9
-62 -51 93 -107 176 -64 50 25 59 63 59 249 l0 165 -30 0 c-16 0 -30 -4 -30
-9 0 -6 -12 -3 -27 5 -35 17 -69 17 -110 -1z m117 -65 c16 -16 20 -33 20 -85
0 -52 -4 -69 -20 -85 -23 -23 -68 -26 -94 -7 -38 28 -38 136 0 178 22 25 69
24 94 -1z"/>
<path d="M3676 928 c4 -13 28 -81 54 -153 43 -116 46 -133 36 -160 -8 -20 -23
-33 -44 -40 -24 -7 -32 -15 -32 -32 0 -48 70 -38 106 14 11 17 47 107 79 199
32 93 60 175 62 182 4 8 -6 12 -29 12 l-35 0 -33 -107 -33 -108 -34 108 -34
107 -35 0 c-32 0 -35 -2 -28 -22z"/>
<path d="M4360 925 c0 -23 3 -24 76 -27 l76 -3 -81 -107 c-45 -59 -81 -117
-81 -128 0 -19 6 -20 130 -20 l130 0 0 25 c0 24 -2 24 -86 27 l-86 3 81 107
c45 59 81 117 81 128 0 19 -6 20 -120 20 l-120 0 0 -25z"/>
<path d="M4700 795 l0 -155 30 0 30 0 0 155 0 155 -30 0 -30 0 0 -155z"/>
<path d="M5060 795 l0 -155 35 0 35 0 0 155 0 155 -35 0 -35 0 0 -155z"/>
<path d="M6361 838 c78 -215 73 -194 52 -230 -13 -22 -28 -34 -46 -36 -21 -3
-27 -9 -27 -27 0 -12 7 -26 17 -29 27 -11 78 12 96 43 16 28 137 365 137 383
0 5 -14 8 -32 6 -32 -3 -33 -5 -64 -103 -18 -59 -34 -94 -38 -85 -3 8 -19 53
-34 100 -29 85 -29 85 -65 88 l-37 3 41 -113z"/>
<path d="M7741 838 c23 -62 47 -131 55 -152 21 -59 -4 -116 -53 -116 -18 0
-23 -5 -23 -24 0 -13 7 -27 17 -30 28 -11 82 14 98 45 17 31 135 366 135 381
0 5 -14 8 -32 6 -32 -3 -33 -5 -64 -103 -18 -59 -34 -94 -38 -85 -3 8 -19 53
-34 100 -29 84 -29 85 -65 88 l-36 3 40 -113z"/>
<path d="M8220 925 c0 -23 2 -24 80 -27 l79 -3 -79 -105 c-46 -60 -80 -114
-80 -127 0 -23 2 -23 125 -23 l125 0 0 25 c0 25 -1 25 -86 25 l-85 0 80 104
c54 69 81 113 81 130 l0 26 -120 0 -120 0 0 -25z"/>
</g>
</svg>
