<?xml version="1.0" encoding="utf-8"?>
<!-- Generator: Adobe Illustrator 24.1.1, SVG Export Plug-In . SVG Version: 6.00 Build 0)  -->
<svg version="1.1" id="SvgjsSvg114305" xmlns:svgjs="http://svgjs.com/svgjs"
	 xmlns="http://www.w3.org/2000/svg" xmlns:xlink="http://www.w3.org/1999/xlink" x="0px" y="0px" width="3440.1px"
	 height="908.8px" viewBox="0 0 3440.1 908.8" style="enable-background:new 0 0 3440.1 908.8;" xml:space="preserve">
<style type="text/css">
	.st0{fill:#0670DB;}
	.st1{fill:#0F0F0F;}
</style>
<g id="SvgjsG114307" transform="translate(328, 327.99999999999994) scale(34.4)">
	<g id="SvgjsG30177" transform="scale(0.21645021645021645)">
		<g id="SvgjsG30178" transform="translate(-7.329522829157535, -7.5405140726767375) scale(1.3714057013743315)">
			<path class="st0" d="M61.8,15.1c-0.7-0.4-1.6-0.2-2,0.5l-6.9,11.9h-6.4c-0.7,0-1.4,0.4-1.7,1l-3.1,5.3H29.8l-7-12.2
				c0-0.1,0.1-0.1,0.1-0.2l9.4-16.2h11.4l4.9,8.5c0.4,0.7,1.3,1,2,0.6c0,0,0,0,0,0c0.7-0.4,1-1.3,0.5-2l-4.9-8.5l5.7-9.9H60
				c0.8,0,1.5-0.7,1.5-1.5S60.8-9.1,60-9.1h-8.1l-6-10.4c-0.4-0.6-1-1-1.7-1H32.4l-3.1-5.4c-0.4-0.7-1.3-1-2-0.6
				c-0.7,0.4-1,1.3-0.6,2c0,0,0,0,0,0l3,5.2L23.6-8.6c-0.4,0.6-0.4,1.4,0,2l6,10.5l-9.3,16.2c0,0.1-0.1,0.1-0.1,0.2h-14l-5.1-8.8
				l4.3-7.5c0.4-0.6,0.4-1.4,0-2L1.4-5.1l4-6.9h4.6c0.7,0,1.4-0.4,1.7-1l2.5-4.4c0.4-0.6,0.4-1.4,0-2l-2.5-4.4c-0.4-0.6-1-1-1.7-1
				H4.8c-0.7,0-1.4,0.4-1.7,1L0.9-20h-6.2c-0.8,0-1.5,0.7-1.5,1.5c0,0.8,0.7,1.5,1.5,1.5h6.2l1.9,3.3l-3.9,6.7h-8.7
				c-0.7,0-1.4,0.4-1.7,1l-4.2,7.3H-25c-0.8,0-1.5,0.7-1.5,1.5s0.7,1.5,1.5,1.5h9.2l4.2,7.3c0.4,0.6,1,1,1.7,1h8.3l5.1,8.8
				l-7.1,12.3h-8.1l-2.3-4c-0.3-0.5-0.8-0.7-1.3-0.8H-20l-3.9-6.8c-0.4-0.7-1.3-1-2-0.6c-0.7,0.4-1,1.3-0.6,2c0,0,0,0,0,0l3.9,6.8
				l-2.3,4c-0.3,0.5-0.3,1,0,1.5l2.4,4.2l-4.1,7.1c-0.4,0.7-0.2,1.6,0.5,2s1.6,0.2,2-0.5l4.2-7.2h4.5c0.5,0,1-0.3,1.3-0.8l2.3-4h8.1
				l7.3,12.7c0.4,0.6,1,1,1.7,1h14.7l6.4,11c0.4,0.7,1.3,1,2,0.5c0,0,0,0,0,0c0.7-0.4,1-1.3,0.5-2L22.8,49l7-12.1h11.9l3.1,5.3
				c0.4,0.6,1,1,1.7,1h5.8l5.1,8.8c0.4,0.7,1.3,1,2,0.5c0,0,0,0,0,0c0.7-0.4,1-1.3,0.5-2l-4.9-8.5l3.3-5.6c0.4-0.6,0.4-1.4,0-2
				l-3-5.1l7-12.1C62.7,16.4,62.5,15.5,61.8,15.1C61.8,15.1,61.8,15.1,61.8,15.1L61.8,15.1z M32.8-16.5H43l5.1,8.9L43,1.3H32.8
				l-5.1-8.9C27.6-7.6,32.8-16.5,32.8-16.5z M6-20.8h2.8l1.4,2.4l-1.4,2.4H6l-1.4-2.4L6-20.8z M-12,2.9l3.4-5.8h6.7l3.4,5.8
				l-3.4,5.8h-6.7L-12,2.9L-12,2.9z M-16.2,38.7H-20l-1.9-3.3l1.8-3c0.1,0,0.1,0,0.2-0.1c0.1,0,0.1-0.1,0.2-0.2h3.5l1.9,3.2
				c0,0,0,0,0,0s0,0,0,0C-14.3,35.5-16.2,38.7-16.2,38.7z M19.6,46.6H6.6L0.2,35.4l6.5-11.2h12.9L26,35.4L19.6,46.6z M45.4,35.4
				l2.2-3.8h4.4l2.2,3.8l-2.2,3.8h-4.4L45.4,35.4z M13.1,27.5c-4.3,0-7.9,3.5-7.9,7.9s3.5,7.9,7.9,7.9s7.9-3.5,7.9-7.9
				S17.4,27.5,13.1,27.5L13.1,27.5z M13.1,41.3c-3.2,0-5.9-2.6-5.9-5.9c0-3.2,2.6-5.9,5.9-5.9c3.2,0,5.9,2.6,5.9,5.9
				C19,38.7,16.3,41.3,13.1,41.3z M37.9-1.4c3.4,0,6.1-2.8,6.1-6.1s-2.8-6.1-6.1-6.1c-3.4,0-6.1,2.8-6.1,6.1S34.5-1.4,37.9-1.4z
				 M37.9-11.7c2.3,0,4.1,1.9,4.1,4.1s-1.9,4.1-4.1,4.1c-2.3,0-4.1-1.9-4.1-4.1S35.6-11.7,37.9-11.7L37.9-11.7z M-5.3-0.4
				c-1.8,0-3.3,1.5-3.3,3.3s1.5,3.3,3.3,3.3C-3.5,6.3-2,4.8-2,2.9S-3.5-0.4-5.3-0.4z M-5.3,5.3c-1.3,0-2.3-1-2.3-2.3s1-2.3,2.3-2.3
				S-3,1.7-3,2.9S-4,5.3-5.3,5.3L-5.3,5.3z"/>
		</g>
		<g id="SvgjsG30179" transform="translate(309.63816104229807, 57.42232156981069) scale(1)">
			<path class="st1" d="M-160.6-72.9c0-1.9-0.7-3.6-2-4.9s-3-2-4.9-2h-22c-1.9,0-3.5,0.7-4.9,2c-1.3,1.3-2,3-2,4.9v7.4
				c0,1.9,0.7,3.6,2,4.9c1.3,1.3,3,2,4.9,2h22c0.2,0,0.3,0.1,0.3,0.4v7.4c0,0.2-0.1,0.4-0.3,0.4h-22c-0.2,0-0.3-0.1-0.3-0.4v-2.7
				h-6.6v2.7c0,1.9,0.7,3.6,2,4.9c1.3,1.3,3,2,4.9,2h22c1.9,0,3.5-0.7,4.9-2s2-3,2-4.9v-7.4c0-1.9-0.7-3.6-2-4.9c-1.4-1.3-3-2-4.9-2
				h-22c-0.2,0-0.3-0.1-0.3-0.3v-7.4c0-0.2,0.1-0.4,0.3-0.4h22c0.2,0,0.3,0.1,0.3,0.4v2.7h6.6V-72.9z M-117.4-79.8h-32.9v35.8h32.9
				v-6.6h-26.3v-8.1h21.2v-6.6h-21.2v-8.1h26.3V-79.8z M-78.1-53.6l-22-26.2h-7.2v35.8h6.6v-26.2l22.1,26.2h7.2v-35.8h-6.6V-53.6z
				 M-62.8-79.8v6.6h14.6v29.2h6.6v-29.2H-27v-6.6H-62.8z M-11.3-79.8c-1.9,0-3.6,0.7-4.9,2c-1.3,1.3-2,3-2,4.9v28.9h6.6v-12H11v12
				h6.6v-28.9c0-1.9-0.7-3.6-2-4.9c-1.4-1.3-3-2-4.9-2H-11.3z M-11.7-62.6v-10.3c0-0.2,0.1-0.4,0.3-0.4h21.9c0.2,0,0.3,0.1,0.3,0.4
				v10.3H-11.7z M55.5-79.8L43.3-65.2h-8.4v-14.6h-6.6v35.8h6.6v-14.6h8.4l12.2,14.6h7.2v-1.7L49.2-61.9l13.5-16.2v-1.7H55.5z
				 M108.3-72.9c0-1.9-0.7-3.6-2-4.9c-1.4-1.3-3-2-4.9-2h-22c-1.9,0-3.5,0.7-4.9,2c-1.3,1.3-2,3-2,4.9v7.4c0,1.9,0.7,3.6,2,4.9
				c1.3,1.3,3,2,4.9,2h22c0.2,0,0.3,0.1,0.3,0.4v7.4c0,0.2-0.1,0.4-0.3,0.4h-22c-0.2,0-0.3-0.1-0.3-0.4v-2.7h-6.6v2.7
				c0,1.9,0.7,3.6,2,4.9c1.3,1.3,3,2,4.9,2h22c1.9,0,3.5-0.7,4.9-2c1.4-1.3,2-3,2-4.9v-7.4c0-1.9-0.7-3.6-2-4.9c-1.4-1.3-3-2-4.9-2
				h-22c-0.2,0-0.3-0.1-0.3-0.3v-7.4c0-0.2,0.1-0.4,0.3-0.4h22c0.2,0,0.3,0.1,0.3,0.4v2.7h6.6V-72.9z"/>
		</g>
		<g id="SvgjsG30180" transform="translate(310.3381610422981, 95.11284923615081) scale(1)">
			<path class="st0" d="M-191.4-47.3l-3.3-9.8h-2.5l4.7,13l-0.5,1.3c-0.3,0.8-0.6,1.4-1.1,1.7c-0.4,0.3-1,0.5-1.8,0.5l-0.6,0v1.8
				l0.8,0.2l0.4,0c1.8,0,3.1-1.1,3.9-3.3l5.3-15.2h-2.4L-191.4-47.3z M-174.3-44.1h2.3v-0.2c-0.3-0.7-0.5-1.7-0.5-2.9v-6
				c0-1.3-0.5-2.4-1.3-3.1c-0.9-0.8-2.1-1.1-3.6-1.1c-0.9,0-1.8,0.2-2.6,0.5c-0.8,0.4-1.4,0.8-1.9,1.5c-0.5,0.6-0.7,1.3-0.7,1.9h2.3
				c0-0.6,0.3-1.1,0.8-1.5c0.5-0.4,1.2-0.6,2-0.6c0.9,0,1.6,0.2,2.1,0.7c0.5,0.5,0.7,1.1,0.7,1.9v1h-2.2c-1.9,0-3.4,0.4-4.4,1.1
				c-1,0.8-1.6,1.8-1.6,3.2c0,1.1,0.4,2.1,1.2,2.8c0.8,0.7,1.9,1.1,3.2,1.1c1.4,0,2.7-0.5,3.7-1.6
				C-174.5-44.8-174.4-44.3-174.3-44.1z M-178-45.8c-0.7,0-1.3-0.2-1.8-0.6c-0.5-0.4-0.7-0.9-0.7-1.7c0-1.6,1.4-2.4,4.1-2.4h1.8v2.7
				c-0.3,0.6-0.8,1.1-1.4,1.4C-176.6-45.9-177.3-45.8-178-45.8z M-165-45.9l7.3-9.7v-1.6h-9.9v1.9h7.1l-7.2,9.6v1.7h10.4v-1.8H-165z
				 M-150.6-44.1v-13.1h-2.3v13.1H-150.6z M-142.8-44.1v-18.6h-2.2v18.6H-142.8z M-135-44.1v-13.1h-2.3v13.1H-135z M-127.4-57.2
				h-2.1v13.1h2.2v-9.6c0.5-1.3,1.6-1.9,3-1.9c1.9,0,2.8,1,2.8,2.9v8.6h2.3v-8.7c0.1-0.8,0.4-1.5,1-2c0.6-0.5,1.2-0.8,2.1-0.8
				c1,0,1.7,0.2,2.2,0.7c0.4,0.5,0.7,1.2,0.7,2.1v8.7h2.2v-8.8c-0.1-3.1-1.5-4.6-4.4-4.6c-1,0-1.8,0.2-2.5,0.6
				c-0.7,0.4-1.3,0.9-1.7,1.5c-0.7-1.4-1.9-2.1-3.7-2.1c-1.6,0-2.9,0.6-3.9,1.7L-127.4-57.2z M-93.5-50.6v-1.8h-5.9v1.8H-93.5z
				 M-77.4-47.3l-3.3-9.8h-2.5l4.7,13l-0.5,1.3c-0.3,0.8-0.6,1.4-1,1.7c-0.4,0.3-1,0.5-1.8,0.5l-0.6,0v1.8l0.8,0.2l0.4,0
				c1.8,0,3.1-1.1,3.9-3.3l5.3-15.2h-2.4L-77.4-47.3z M-60.2-44.1h2.4v-0.2c-0.3-0.7-0.5-1.7-0.5-2.9v-6c0-1.3-0.5-2.4-1.3-3.1
				c-0.9-0.8-2-1.1-3.6-1.1c-1,0-1.8,0.2-2.6,0.5c-0.8,0.4-1.4,0.8-1.9,1.5c-0.5,0.6-0.7,1.3-0.7,1.9h2.3c0-0.6,0.3-1.1,0.8-1.5
				c0.5-0.4,1.2-0.6,2-0.6c0.9,0,1.6,0.2,2.1,0.7c0.5,0.5,0.7,1.1,0.7,1.9v1h-2.2c-1.9,0-3.4,0.4-4.4,1.1c-1,0.8-1.6,1.8-1.6,3.2
				c0,1.1,0.4,2.1,1.3,2.8c0.8,0.7,1.9,1.1,3.2,1.1c1.5,0,2.7-0.5,3.7-1.6C-60.5-44.8-60.4-44.3-60.2-44.1z M-64-45.8
				c-0.7,0-1.3-0.2-1.8-0.6c-0.5-0.4-0.7-0.9-0.7-1.7c0-1.6,1.4-2.4,4.1-2.4h1.8v2.7c-0.3,0.6-0.7,1.1-1.4,1.4
				C-62.6-45.9-63.3-45.8-64-45.8z M-42-50.5v-0.2c0-2.1-0.5-3.8-1.4-5c-0.9-1.2-2.2-1.8-3.8-1.8c-1.6,0-2.9,0.6-3.8,1.7l-0.1-1.5
				h-2.1V-39h2.3v-6.3c0.9,1,2.2,1.5,3.8,1.5c1.6,0,2.8-0.6,3.7-1.8C-42.4-46.9-42-48.5-42-50.5z M-44.2-50.7c0,1.7-0.3,3-1,3.8
				c-0.6,0.8-1.5,1.3-2.6,1.3c-1.4,0-2.4-0.6-3.1-1.8v-6.3c0.7-1.2,1.7-1.8,3.1-1.8c1.1,0,2,0.4,2.6,1.3
				C-44.6-53.4-44.2-52.2-44.2-50.7z M-29.3-44.1h2.4v-0.2c-0.3-0.7-0.5-1.7-0.5-2.9v-6c0-1.3-0.5-2.4-1.3-3.1
				c-0.9-0.8-2.1-1.1-3.6-1.1c-1,0-1.8,0.2-2.6,0.5c-0.8,0.4-1.4,0.8-1.9,1.5c-0.5,0.6-0.7,1.3-0.7,1.9h2.3c0-0.6,0.3-1.1,0.8-1.5
				c0.5-0.4,1.2-0.6,2-0.6c0.9,0,1.6,0.2,2.1,0.7c0.5,0.5,0.7,1.1,0.7,1.9v1h-2.2c-1.9,0-3.3,0.4-4.4,1.1c-1,0.8-1.6,1.8-1.6,3.2
				c0,1.1,0.4,2.1,1.2,2.8c0.8,0.7,1.9,1.1,3.2,1.1c1.4,0,2.7-0.5,3.7-1.6C-29.5-44.8-29.4-44.3-29.3-44.1z M-33-45.8
				c-0.7,0-1.3-0.2-1.8-0.6c-0.5-0.4-0.7-0.9-0.7-1.7c0-1.6,1.4-2.4,4.1-2.4h1.8v2.7c-0.3,0.6-0.7,1.1-1.4,1.4
				C-31.7-45.9-32.3-45.8-33-45.8z M-18-47.3l-3.3-9.8h-2.5l4.7,13l-0.5,1.3c-0.3,0.8-0.6,1.4-1.1,1.7c-0.4,0.3-1,0.5-1.8,0.5
				l-0.6,0v1.8l0.8,0.2l0.4,0c1.8,0,3.1-1.1,3.9-3.3l5.3-15.2H-15L-18-47.3z M1.2-45.9l7.3-9.7v-1.6h-10v1.9h7.1l-7.3,9.6v1.7H8.9
				v-1.8H1.2z M18.4-43.8c2.2,0,3.9-0.8,5-2.5l-1.4-1.1c-0.4,0.5-0.9,1-1.4,1.3c-0.5,0.3-1.2,0.5-2,0.5c-1.1,0-2-0.4-2.8-1.2
				c-0.7-0.8-1.1-1.9-1.1-3.1h8.9v-0.9c0-2.1-0.5-3.7-1.4-4.8c-0.9-1.1-2.3-1.7-4-1.7c-1,0-2,0.3-2.9,0.9c-0.9,0.6-1.6,1.4-2.1,2.4
				c-0.5,1-0.8,2.2-0.8,3.5v0.4c0,2,0.6,3.5,1.7,4.7C15.1-44.4,16.6-43.8,18.4-43.8z M18.1-55.6c0.9,0,1.7,0.3,2.2,0.9
				c0.6,0.6,0.9,1.5,0.9,2.7v0.2h-6.6c0.1-1.2,0.5-2.1,1.1-2.8C16.4-55.3,17.2-55.6,18.1-55.6z M31.5-50.1l4.6,6.1h2.6L33-51.7
				l5.1-5.5h-2.7l-4.1,4.3l-1.2,1.5v-11.3h-2.2v18.6h2.2v-4.6L31.5-50.1z M50.3-44.1h2.3v-0.2c-0.3-0.7-0.5-1.7-0.5-2.9v-6
				c0-1.3-0.5-2.4-1.3-3.1c-0.9-0.8-2-1.1-3.6-1.1c-1,0-1.8,0.2-2.6,0.5c-0.8,0.4-1.4,0.8-1.9,1.5c-0.5,0.6-0.7,1.3-0.7,1.9h2.3
				c0-0.6,0.3-1.1,0.8-1.5c0.5-0.4,1.2-0.6,2-0.6c0.9,0,1.6,0.2,2.1,0.7c0.5,0.5,0.7,1.1,0.7,1.9v1h-2.2c-1.9,0-3.4,0.4-4.4,1.1
				c-1,0.8-1.6,1.8-1.6,3.2c0,1.1,0.4,2.1,1.2,2.8c0.8,0.7,1.9,1.1,3.2,1.1c1.4,0,2.7-0.5,3.7-1.6C50-44.8,50.1-44.3,50.3-44.1z
				 M46.5-45.8c-0.7,0-1.3-0.2-1.8-0.6C44.3-46.8,44-47.3,44-48c0-1.6,1.4-2.4,4.1-2.4h1.8v2.7c-0.3,0.6-0.7,1.1-1.4,1.4
				C47.9-45.9,47.2-45.8,46.5-45.8z M70-50.6v-1.8h-5.9v1.8H70z M89.9-44.1h2.4v-0.2c-0.3-0.7-0.5-1.7-0.5-2.9v-6
				c0-1.3-0.5-2.4-1.3-3.1c-0.9-0.8-2-1.1-3.6-1.1c-0.9,0-1.8,0.2-2.6,0.5c-0.8,0.4-1.4,0.8-1.9,1.5c-0.5,0.6-0.7,1.3-0.7,1.9h2.3
				c0-0.6,0.3-1.1,0.8-1.5c0.6-0.4,1.2-0.6,2-0.6c0.9,0,1.6,0.2,2.1,0.7c0.5,0.5,0.7,1.1,0.7,1.9v1h-2.2c-1.9,0-3.3,0.4-4.4,1.1
				c-1,0.8-1.6,1.8-1.6,3.2c0,1.1,0.4,2.1,1.2,2.8c0.8,0.7,1.9,1.1,3.2,1.1c1.4,0,2.7-0.5,3.7-1.6C89.7-44.8,89.8-44.3,89.9-44.1z
				 M86.2-45.8c-0.7,0-1.3-0.2-1.8-0.6c-0.5-0.4-0.7-0.9-0.7-1.7c0-1.6,1.4-2.4,4.1-2.4h1.8v2.7c-0.3,0.6-0.7,1.1-1.4,1.4
				C87.5-45.9,86.9-45.8,86.2-45.8z M96.5-50.7c0,2.1,0.5,3.8,1.4,5.1c1,1.2,2.2,1.9,3.7,1.9c1.6,0,2.8-0.5,3.7-1.5v1.1
				c0,1.1-0.3,2-0.9,2.6c-0.6,0.6-1.5,0.9-2.6,0.9c-1.4,0-2.6-0.6-3.5-1.8l-1.2,1.4c0.5,0.7,1.2,1.3,2.1,1.7
				c0.9,0.4,1.8,0.6,2.8,0.6c1.7,0,3.1-0.5,4.1-1.5c1-1,1.5-2.3,1.5-4v-12.8h-2l-0.1,1.5c-0.9-1.1-2.1-1.7-3.7-1.7
				c-1.6,0-2.8,0.6-3.8,1.8C97-54.4,96.5-52.8,96.5-50.7z M98.8-50.5c0-1.7,0.3-2.9,0.9-3.8c0.6-0.9,1.5-1.3,2.6-1.3
				c1.4,0,2.4,0.6,3.1,1.9v6c-0.7,1.3-1.7,1.9-3.1,1.9c-1.1,0-1.9-0.4-2.6-1.3S98.8-49,98.8-50.5z M105.7-62.2h-1.8
				c0,0.6-0.2,1-0.5,1.3c-0.3,0.3-0.8,0.5-1.3,0.5c-0.6,0-1-0.2-1.4-0.5s-0.5-0.8-0.5-1.3h-1.8c0,1,0.3,1.8,1,2.4
				c0.7,0.6,1.5,0.9,2.6,0.9c1.1,0,2-0.3,2.6-0.9C105.4-60.4,105.7-61.2,105.7-62.2z"/>
		</g>
	</g>
</g>
</svg>
